<?xml version="1.0" encoding="UTF-8" standalone="no"?><svg xmlns="http://www.w3.org/2000/svg" xmlns:xlink="http://www.w3.org/1999/xlink" contentStyleType="text/css" height="406px" preserveAspectRatio="none" style="width:1767px;height:406px;background:#FFFFFF;" version="1.1" viewBox="0 0 1767 406" width="1767px" zoomAndPan="magnify"><defs/><g><!--MD5=[86c7c362de55a38b660185a1328fe18d]
class Organization--><g id="elem_Organization"><rect codeLine="1" fill="#F1F1F1" height="48" id="Organization" rx="2.5" ry="2.5" style="stroke:#181818;stroke-width:0.5;" width="112" x="712.5" y="133"/><ellipse cx="727.5" cy="149" fill="#ADD1B2" rx="11" ry="11" style="stroke:#181818;stroke-width:1.0;"/><path d="M729.5,145.5 Q729.7031,145 729.9375,144.75 Q730.1719,144.5 730.4375,144.5 Q730.9063,144.5 731.2031,144.7813 Q731.5,145.0625 731.5,145.7188 L731.5,147.2813 Q731.5,147.9375 731.2188,148.2188 Q730.9375,148.5 730.5,148.5 Q730.1094,148.5 729.8594,148.3281 Q729.6094,148.1563 729.5,147.7031 Q729.4531,147.3906 729.2813,147.2188 Q728.9688,146.8906 728.4063,146.7031 Q727.8438,146.5 727.2813,146.5 Q726.5781,146.5 725.9844,146.7813 Q725.4063,147.0625 724.9531,147.6875 Q724.5,148.3125 724.5,149.1719 L724.5,150.0938 Q724.5,151.125 725.3438,151.8125 Q726.1875,152.5 727.6875,152.5 Q728.5781,152.5 729.2031,152.2969 Q729.5625,152.1875 729.9688,151.8281 Q730.2344,151.625 730.375,151.5625 Q730.5156,151.5 730.6875,151.5 Q731.0156,151.5 731.25,151.7656 Q731.5,152.0156 731.5,152.375 Q731.5,152.7188 731.1563,153.125 Q730.6563,153.7188 729.8594,154.0469 Q728.8125,154.5 727.5313,154.5 Q726.0313,154.5 724.8281,153.9063 Q723.8594,153.4375 723.1719,152.4219 Q722.5,151.4063 722.5,150.2031 L722.5,149.1094 Q722.5,147.8594 723.0938,146.7656 Q723.7031,145.6719 724.75,145.0938 Q725.8125,144.5 727,144.5 Q727.7188,144.5 728.3438,144.75 Q728.9688,145 729.5,145.5 Z " fill="#000000"/><text fill="#000000" font-family="sans-serif" font-size="14" lengthAdjust="spacing" textLength="80" x="741.5" y="154.7285">Organization</text><line style="stroke:#181818;stroke-width:0.5;" x1="713.5" x2="823.5" y1="165" y2="165"/><line style="stroke:#181818;stroke-width:0.5;" x1="713.5" x2="823.5" y1="173" y2="173"/></g><!--MD5=[cf7dacd8f7ef753f28ab609139658ae0]
class FileInfo--><g id="elem_FileInfo"><rect codeLine="2" fill="#F1F1F1" height="48" id="FileInfo" rx="2.5" ry="2.5" style="stroke:#181818;stroke-width:0.5;" width="78" x="481.5" y="7"/><ellipse cx="496.5" cy="23" fill="#ADD1B2" rx="11" ry="11" style="stroke:#181818;stroke-width:1.0;"/><path d="M498.5,19.5 Q498.7031,19 498.9375,18.75 Q499.1719,18.5 499.4375,18.5 Q499.9063,18.5 500.2031,18.7813 Q500.5,19.0625 500.5,19.7188 L500.5,21.2813 Q500.5,21.9375 500.2188,22.2188 Q499.9375,22.5 499.5,22.5 Q499.1094,22.5 498.8594,22.3281 Q498.6094,22.1563 498.5,21.7031 Q498.4531,21.3906 498.2813,21.2188 Q497.9688,20.8906 497.4063,20.7031 Q496.8438,20.5 496.2813,20.5 Q495.5781,20.5 494.9844,20.7813 Q494.4063,21.0625 493.9531,21.6875 Q493.5,22.3125 493.5,23.1719 L493.5,24.0938 Q493.5,25.125 494.3438,25.8125 Q495.1875,26.5 496.6875,26.5 Q497.5781,26.5 498.2031,26.2969 Q498.5625,26.1875 498.9688,25.8281 Q499.2344,25.625 499.375,25.5625 Q499.5156,25.5 499.6875,25.5 Q500.0156,25.5 500.25,25.7656 Q500.5,26.0156 500.5,26.375 Q500.5,26.7188 500.1563,27.125 Q499.6563,27.7188 498.8594,28.0469 Q497.8125,28.5 496.5313,28.5 Q495.0313,28.5 493.8281,27.9063 Q492.8594,27.4375 492.1719,26.4219 Q491.5,25.4063 491.5,24.2031 L491.5,23.1094 Q491.5,21.8594 492.0938,20.7656 Q492.7031,19.6719 493.75,19.0938 Q494.8125,18.5 496,18.5 Q496.7188,18.5 497.3438,18.75 Q497.9688,19 498.5,19.5 Z " fill="#000000"/><text fill="#000000" font-family="sans-serif" font-size="14" lengthAdjust="spacing" textLength="46" x="510.5" y="28.7285">FileInfo</text><line style="stroke:#181818;stroke-width:0.5;" x1="482.5" x2="558.5" y1="39" y2="39"/><line style="stroke:#181818;stroke-width:0.5;" x1="482.5" x2="558.5" y1="47" y2="47"/></g><!--MD5=[61c3eb8b9e8e092c8fb2ab60e273201a]
class Gantt--><g id="elem_Gantt"><rect codeLine="3" fill="#F1F1F1" height="48" id="Gantt" rx="2.5" ry="2.5" style="stroke:#181818;stroke-width:0.5;" width="67" x="595" y="7"/><ellipse cx="610" cy="23" fill="#ADD1B2" rx="11" ry="11" style="stroke:#181818;stroke-width:1.0;"/><path d="M612,19.5 Q612.2031,19 612.4375,18.75 Q612.6719,18.5 612.9375,18.5 Q613.4063,18.5 613.7031,18.7813 Q614,19.0625 614,19.7188 L614,21.2813 Q614,21.9375 613.7188,22.2188 Q613.4375,22.5 613,22.5 Q612.6094,22.5 612.3594,22.3281 Q612.1094,22.1563 612,21.7031 Q611.9531,21.3906 611.7813,21.2188 Q611.4688,20.8906 610.9063,20.7031 Q610.3438,20.5 609.7813,20.5 Q609.0781,20.5 608.4844,20.7813 Q607.9063,21.0625 607.4531,21.6875 Q607,22.3125 607,23.1719 L607,24.0938 Q607,25.125 607.8438,25.8125 Q608.6875,26.5 610.1875,26.5 Q611.0781,26.5 611.7031,26.2969 Q612.0625,26.1875 612.4688,25.8281 Q612.7344,25.625 612.875,25.5625 Q613.0156,25.5 613.1875,25.5 Q613.5156,25.5 613.75,25.7656 Q614,26.0156 614,26.375 Q614,26.7188 613.6563,27.125 Q613.1563,27.7188 612.3594,28.0469 Q611.3125,28.5 610.0313,28.5 Q608.5313,28.5 607.3281,27.9063 Q606.3594,27.4375 605.6719,26.4219 Q605,25.4063 605,24.2031 L605,23.1094 Q605,21.8594 605.5938,20.7656 Q606.2031,19.6719 607.25,19.0938 Q608.3125,18.5 609.5,18.5 Q610.2188,18.5 610.8438,18.75 Q611.4688,19 612,19.5 Z " fill="#000000"/><text fill="#000000" font-family="sans-serif" font-size="14" lengthAdjust="spacing" textLength="35" x="624" y="28.7285">Gantt</text><line style="stroke:#181818;stroke-width:0.5;" x1="596" x2="661" y1="39" y2="39"/><line style="stroke:#181818;stroke-width:0.5;" x1="596" x2="661" y1="47" y2="47"/></g><!--MD5=[2be0e7dddf3f62e1404eefaa7c90e207]
class ImplementationInfo--><g id="elem_ImplementationInfo"><rect codeLine="4" fill="#F1F1F1" height="48" id="ImplementationInfo" rx="2.5" ry="2.5" style="stroke:#181818;stroke-width:0.5;" width="150" x="1069.5" y="7"/><ellipse cx="1084.5" cy="23" fill="#ADD1B2" rx="11" ry="11" style="stroke:#181818;stroke-width:1.0;"/><path d="M1086.5,19.5 Q1086.7031,19 1086.9375,18.75 Q1087.1719,18.5 1087.4375,18.5 Q1087.9063,18.5 1088.2031,18.7813 Q1088.5,19.0625 1088.5,19.7188 L1088.5,21.2813 Q1088.5,21.9375 1088.2188,22.2188 Q1087.9375,22.5 1087.5,22.5 Q1087.1094,22.5 1086.8594,22.3281 Q1086.6094,22.1563 1086.5,21.7031 Q1086.4531,21.3906 1086.2813,21.2188 Q1085.9688,20.8906 1085.4063,20.7031 Q1084.8438,20.5 1084.2813,20.5 Q1083.5781,20.5 1082.9844,20.7813 Q1082.4063,21.0625 1081.9531,21.6875 Q1081.5,22.3125 1081.5,23.1719 L1081.5,24.0938 Q1081.5,25.125 1082.3438,25.8125 Q1083.1875,26.5 1084.6875,26.5 Q1085.5781,26.5 1086.2031,26.2969 Q1086.5625,26.1875 1086.9688,25.8281 Q1087.2344,25.625 1087.375,25.5625 Q1087.5156,25.5 1087.6875,25.5 Q1088.0156,25.5 1088.25,25.7656 Q1088.5,26.0156 1088.5,26.375 Q1088.5,26.7188 1088.1563,27.125 Q1087.6563,27.7188 1086.8594,28.0469 Q1085.8125,28.5 1084.5313,28.5 Q1083.0313,28.5 1081.8281,27.9063 Q1080.8594,27.4375 1080.1719,26.4219 Q1079.5,25.4063 1079.5,24.2031 L1079.5,23.1094 Q1079.5,21.8594 1080.0938,20.7656 Q1080.7031,19.6719 1081.75,19.0938 Q1082.8125,18.5 1084,18.5 Q1084.7188,18.5 1085.3438,18.75 Q1085.9688,19 1086.5,19.5 Z " fill="#000000"/><text fill="#000000" font-family="sans-serif" font-size="14" lengthAdjust="spacing" textLength="118" x="1098.5" y="28.7285">ImplementationInfo</text><line style="stroke:#181818;stroke-width:0.5;" x1="1070.5" x2="1218.5" y1="39" y2="39"/><line style="stroke:#181818;stroke-width:0.5;" x1="1070.5" x2="1218.5" y1="47" y2="47"/></g><!--MD5=[55ae90755b26e0fc451afcf89d44f779]
class MajorRisks--><g id="elem_MajorRisks"><rect codeLine="5" fill="#F1F1F1" height="48" id="MajorRisks" rx="2.5" ry="2.5" style="stroke:#181818;stroke-width:0.5;" width="101" x="933" y="7"/><ellipse cx="948" cy="23" fill="#ADD1B2" rx="11" ry="11" style="stroke:#181818;stroke-width:1.0;"/><path d="M950,19.5 Q950.2031,19 950.4375,18.75 Q950.6719,18.5 950.9375,18.5 Q951.4063,18.5 951.7031,18.7813 Q952,19.0625 952,19.7188 L952,21.2813 Q952,21.9375 951.7188,22.2188 Q951.4375,22.5 951,22.5 Q950.6094,22.5 950.3594,22.3281 Q950.1094,22.1563 950,21.7031 Q949.9531,21.3906 949.7813,21.2188 Q949.4688,20.8906 948.9063,20.7031 Q948.3438,20.5 947.7813,20.5 Q947.0781,20.5 946.4844,20.7813 Q945.9063,21.0625 945.4531,21.6875 Q945,22.3125 945,23.1719 L945,24.0938 Q945,25.125 945.8438,25.8125 Q946.6875,26.5 948.1875,26.5 Q949.0781,26.5 949.7031,26.2969 Q950.0625,26.1875 950.4688,25.8281 Q950.7344,25.625 950.875,25.5625 Q951.0156,25.5 951.1875,25.5 Q951.5156,25.5 951.75,25.7656 Q952,26.0156 952,26.375 Q952,26.7188 951.6563,27.125 Q951.1563,27.7188 950.3594,28.0469 Q949.3125,28.5 948.0313,28.5 Q946.5313,28.5 945.3281,27.9063 Q944.3594,27.4375 943.6719,26.4219 Q943,25.4063 943,24.2031 L943,23.1094 Q943,21.8594 943.5938,20.7656 Q944.2031,19.6719 945.25,19.0938 Q946.3125,18.5 947.5,18.5 Q948.2188,18.5 948.8438,18.75 Q949.4688,19 950,19.5 Z " fill="#000000"/><text fill="#000000" font-family="sans-serif" font-size="14" lengthAdjust="spacing" textLength="69" x="962" y="28.7285">MajorRisks</text><line style="stroke:#181818;stroke-width:0.5;" x1="934" x2="1033" y1="39" y2="39"/><line style="stroke:#181818;stroke-width:0.5;" x1="934" x2="1033" y1="47" y2="47"/></g><!--MD5=[e3173c03cecd3c5e5d228ecb8b0e3015]
class StrategicOrientations--><g id="elem_StrategicOrientations"><rect codeLine="6" fill="#F1F1F1" height="48" id="StrategicOrientations" rx="2.5" ry="2.5" style="stroke:#181818;stroke-width:0.5;" width="165" x="1393" y="7"/><ellipse cx="1408" cy="23" fill="#ADD1B2" rx="11" ry="11" style="stroke:#181818;stroke-width:1.0;"/><path d="M1410,19.5 Q1410.2031,19 1410.4375,18.75 Q1410.6719,18.5 1410.9375,18.5 Q1411.4063,18.5 1411.7031,18.7813 Q1412,19.0625 1412,19.7188 L1412,21.2813 Q1412,21.9375 1411.7188,22.2188 Q1411.4375,22.5 1411,22.5 Q1410.6094,22.5 1410.3594,22.3281 Q1410.1094,22.1563 1410,21.7031 Q1409.9531,21.3906 1409.7813,21.2188 Q1409.4688,20.8906 1408.9063,20.7031 Q1408.3438,20.5 1407.7813,20.5 Q1407.0781,20.5 1406.4844,20.7813 Q1405.9063,21.0625 1405.4531,21.6875 Q1405,22.3125 1405,23.1719 L1405,24.0938 Q1405,25.125 1405.8438,25.8125 Q1406.6875,26.5 1408.1875,26.5 Q1409.0781,26.5 1409.7031,26.2969 Q1410.0625,26.1875 1410.4688,25.8281 Q1410.7344,25.625 1410.875,25.5625 Q1411.0156,25.5 1411.1875,25.5 Q1411.5156,25.5 1411.75,25.7656 Q1412,26.0156 1412,26.375 Q1412,26.7188 1411.6563,27.125 Q1411.1563,27.7188 1410.3594,28.0469 Q1409.3125,28.5 1408.0313,28.5 Q1406.5313,28.5 1405.3281,27.9063 Q1404.3594,27.4375 1403.6719,26.4219 Q1403,25.4063 1403,24.2031 L1403,23.1094 Q1403,21.8594 1403.5938,20.7656 Q1404.2031,19.6719 1405.25,19.0938 Q1406.3125,18.5 1407.5,18.5 Q1408.2188,18.5 1408.8438,18.75 Q1409.4688,19 1410,19.5 Z " fill="#000000"/><text fill="#000000" font-family="sans-serif" font-size="14" lengthAdjust="spacing" textLength="133" x="1422" y="28.7285">StrategicOrientations</text><line style="stroke:#181818;stroke-width:0.5;" x1="1394" x2="1557" y1="39" y2="39"/><line style="stroke:#181818;stroke-width:0.5;" x1="1394" x2="1557" y1="47" y2="47"/></g><!--MD5=[d5fb8d7554634cc38f5f34ff43fe9243]
class Objective--><g id="elem_Objective"><rect codeLine="7" fill="#F1F1F1" height="48" id="Objective" rx="2.5" ry="2.5" style="stroke:#181818;stroke-width:0.5;" width="91" x="7" y="7"/><ellipse cx="22" cy="23" fill="#ADD1B2" rx="11" ry="11" style="stroke:#181818;stroke-width:1.0;"/><path d="M24,19.5 Q24.2031,19 24.4375,18.75 Q24.6719,18.5 24.9375,18.5 Q25.4063,18.5 25.7031,18.7813 Q26,19.0625 26,19.7188 L26,21.2813 Q26,21.9375 25.7188,22.2188 Q25.4375,22.5 25,22.5 Q24.6094,22.5 24.3594,22.3281 Q24.1094,22.1563 24,21.7031 Q23.9531,21.3906 23.7813,21.2188 Q23.4688,20.8906 22.9063,20.7031 Q22.3438,20.5 21.7813,20.5 Q21.0781,20.5 20.4844,20.7813 Q19.9063,21.0625 19.4531,21.6875 Q19,22.3125 19,23.1719 L19,24.0938 Q19,25.125 19.8438,25.8125 Q20.6875,26.5 22.1875,26.5 Q23.0781,26.5 23.7031,26.2969 Q24.0625,26.1875 24.4688,25.8281 Q24.7344,25.625 24.875,25.5625 Q25.0156,25.5 25.1875,25.5 Q25.5156,25.5 25.75,25.7656 Q26,26.0156 26,26.375 Q26,26.7188 25.6563,27.125 Q25.1563,27.7188 24.3594,28.0469 Q23.3125,28.5 22.0313,28.5 Q20.5313,28.5 19.3281,27.9063 Q18.3594,27.4375 17.6719,26.4219 Q17,25.4063 17,24.2031 L17,23.1094 Q17,21.8594 17.5938,20.7656 Q18.2031,19.6719 19.25,19.0938 Q20.3125,18.5 21.5,18.5 Q22.2188,18.5 22.8438,18.75 Q23.4688,19 24,19.5 Z " fill="#000000"/><text fill="#000000" font-family="sans-serif" font-size="14" lengthAdjust="spacing" textLength="59" x="36" y="28.7285">Objective</text><line style="stroke:#181818;stroke-width:0.5;" x1="8" x2="97" y1="39" y2="39"/><line style="stroke:#181818;stroke-width:0.5;" x1="8" x2="97" y1="47" y2="47"/></g><!--MD5=[45511b701d9bb962beb394d114f550cd]
class Stakeholders--><g id="elem_Stakeholders"><rect codeLine="8" fill="#F1F1F1" height="48" id="Stakeholders" rx="2.5" ry="2.5" style="stroke:#181818;stroke-width:0.5;" width="115" x="133" y="7"/><ellipse cx="148" cy="23" fill="#ADD1B2" rx="11" ry="11" style="stroke:#181818;stroke-width:1.0;"/><path d="M150,19.5 Q150.2031,19 150.4375,18.75 Q150.6719,18.5 150.9375,18.5 Q151.4063,18.5 151.7031,18.7813 Q152,19.0625 152,19.7188 L152,21.2813 Q152,21.9375 151.7188,22.2188 Q151.4375,22.5 151,22.5 Q150.6094,22.5 150.3594,22.3281 Q150.1094,22.1563 150,21.7031 Q149.9531,21.3906 149.7813,21.2188 Q149.4688,20.8906 148.9063,20.7031 Q148.3438,20.5 147.7813,20.5 Q147.0781,20.5 146.4844,20.7813 Q145.9063,21.0625 145.4531,21.6875 Q145,22.3125 145,23.1719 L145,24.0938 Q145,25.125 145.8438,25.8125 Q146.6875,26.5 148.1875,26.5 Q149.0781,26.5 149.7031,26.2969 Q150.0625,26.1875 150.4688,25.8281 Q150.7344,25.625 150.875,25.5625 Q151.0156,25.5 151.1875,25.5 Q151.5156,25.5 151.75,25.7656 Q152,26.0156 152,26.375 Q152,26.7188 151.6563,27.125 Q151.1563,27.7188 150.3594,28.0469 Q149.3125,28.5 148.0313,28.5 Q146.5313,28.5 145.3281,27.9063 Q144.3594,27.4375 143.6719,26.4219 Q143,25.4063 143,24.2031 L143,23.1094 Q143,21.8594 143.5938,20.7656 Q144.2031,19.6719 145.25,19.0938 Q146.3125,18.5 147.5,18.5 Q148.2188,18.5 148.8438,18.75 Q149.4688,19 150,19.5 Z " fill="#000000"/><text fill="#000000" font-family="sans-serif" font-size="14" lengthAdjust="spacing" textLength="83" x="162" y="28.7285">Stakeholders</text><line style="stroke:#181818;stroke-width:0.5;" x1="134" x2="247" y1="39" y2="39"/><line style="stroke:#181818;stroke-width:0.5;" x1="134" x2="247" y1="47" y2="47"/></g><!--MD5=[a231249eb8983928dd0764cc85467bbf]
class TeamProjectMember--><g id="elem_TeamProjectMember"><rect codeLine="9" fill="#F1F1F1" height="48" id="TeamProjectMember" rx="2.5" ry="2.5" style="stroke:#181818;stroke-width:0.5;" width="163" x="283" y="7"/><ellipse cx="298" cy="23" fill="#ADD1B2" rx="11" ry="11" style="stroke:#181818;stroke-width:1.0;"/><path d="M300,19.5 Q300.2031,19 300.4375,18.75 Q300.6719,18.5 300.9375,18.5 Q301.4063,18.5 301.7031,18.7813 Q302,19.0625 302,19.7188 L302,21.2813 Q302,21.9375 301.7188,22.2188 Q301.4375,22.5 301,22.5 Q300.6094,22.5 300.3594,22.3281 Q300.1094,22.1563 300,21.7031 Q299.9531,21.3906 299.7813,21.2188 Q299.4688,20.8906 298.9063,20.7031 Q298.3438,20.5 297.7813,20.5 Q297.0781,20.5 296.4844,20.7813 Q295.9063,21.0625 295.4531,21.6875 Q295,22.3125 295,23.1719 L295,24.0938 Q295,25.125 295.8438,25.8125 Q296.6875,26.5 298.1875,26.5 Q299.0781,26.5 299.7031,26.2969 Q300.0625,26.1875 300.4688,25.8281 Q300.7344,25.625 300.875,25.5625 Q301.0156,25.5 301.1875,25.5 Q301.5156,25.5 301.75,25.7656 Q302,26.0156 302,26.375 Q302,26.7188 301.6563,27.125 Q301.1563,27.7188 300.3594,28.0469 Q299.3125,28.5 298.0313,28.5 Q296.5313,28.5 295.3281,27.9063 Q294.3594,27.4375 293.6719,26.4219 Q293,25.4063 293,24.2031 L293,23.1094 Q293,21.8594 293.5938,20.7656 Q294.2031,19.6719 295.25,19.0938 Q296.3125,18.5 297.5,18.5 Q298.2188,18.5 298.8438,18.75 Q299.4688,19 300,19.5 Z " fill="#000000"/><text fill="#000000" font-family="sans-serif" font-size="14" lengthAdjust="spacing" textLength="131" x="312" y="28.7285">TeamProjectMember</text><line style="stroke:#181818;stroke-width:0.5;" x1="284" x2="445" y1="39" y2="39"/><line style="stroke:#181818;stroke-width:0.5;" x1="284" x2="445" y1="47" y2="47"/></g><!--MD5=[92a137e16f97d39bcb20115478890066]
class Concurrent--><g id="elem_Concurrent"><rect codeLine="12" fill="#F1F1F1" height="48" id="Concurrent" rx="2.5" ry="2.5" style="stroke:#181818;stroke-width:0.5;" width="103" x="1255" y="7"/><ellipse cx="1270" cy="23" fill="#ADD1B2" rx="11" ry="11" style="stroke:#181818;stroke-width:1.0;"/><path d="M1272,19.5 Q1272.2031,19 1272.4375,18.75 Q1272.6719,18.5 1272.9375,18.5 Q1273.4063,18.5 1273.7031,18.7813 Q1274,19.0625 1274,19.7188 L1274,21.2813 Q1274,21.9375 1273.7188,22.2188 Q1273.4375,22.5 1273,22.5 Q1272.6094,22.5 1272.3594,22.3281 Q1272.1094,22.1563 1272,21.7031 Q1271.9531,21.3906 1271.7813,21.2188 Q1271.4688,20.8906 1270.9063,20.7031 Q1270.3438,20.5 1269.7813,20.5 Q1269.0781,20.5 1268.4844,20.7813 Q1267.9063,21.0625 1267.4531,21.6875 Q1267,22.3125 1267,23.1719 L1267,24.0938 Q1267,25.125 1267.8438,25.8125 Q1268.6875,26.5 1270.1875,26.5 Q1271.0781,26.5 1271.7031,26.2969 Q1272.0625,26.1875 1272.4688,25.8281 Q1272.7344,25.625 1272.875,25.5625 Q1273.0156,25.5 1273.1875,25.5 Q1273.5156,25.5 1273.75,25.7656 Q1274,26.0156 1274,26.375 Q1274,26.7188 1273.6563,27.125 Q1273.1563,27.7188 1272.3594,28.0469 Q1271.3125,28.5 1270.0313,28.5 Q1268.5313,28.5 1267.3281,27.9063 Q1266.3594,27.4375 1265.6719,26.4219 Q1265,25.4063 1265,24.2031 L1265,23.1094 Q1265,21.8594 1265.5938,20.7656 Q1266.2031,19.6719 1267.25,19.0938 Q1268.3125,18.5 1269.5,18.5 Q1270.2188,18.5 1270.8438,18.75 Q1271.4688,19 1272,19.5 Z " fill="#000000"/><text fill="#000000" font-family="sans-serif" font-size="14" lengthAdjust="spacing" textLength="71" x="1284" y="28.7285">Concurrent</text><line style="stroke:#181818;stroke-width:0.5;" x1="1256" x2="1357" y1="39" y2="39"/><line style="stroke:#181818;stroke-width:0.5;" x1="1256" x2="1357" y1="47" y2="47"/></g><!--MD5=[d5c42d093d6b8c9b0a3db1895a9d64f9]
class ConcurrentRisk--><g id="elem_ConcurrentRisk"><rect codeLine="13" fill="#F1F1F1" height="48" id="ConcurrentRisk" rx="2.5" ry="2.5" style="stroke:#181818;stroke-width:0.5;" width="130" x="1291.5" y="133"/><ellipse cx="1306.5" cy="149" fill="#ADD1B2" rx="11" ry="11" style="stroke:#181818;stroke-width:1.0;"/><path d="M1308.5,145.5 Q1308.7031,145 1308.9375,144.75 Q1309.1719,144.5 1309.4375,144.5 Q1309.9063,144.5 1310.2031,144.7813 Q1310.5,145.0625 1310.5,145.7188 L1310.5,147.2813 Q1310.5,147.9375 1310.2188,148.2188 Q1309.9375,148.5 1309.5,148.5 Q1309.1094,148.5 1308.8594,148.3281 Q1308.6094,148.1563 1308.5,147.7031 Q1308.4531,147.3906 1308.2813,147.2188 Q1307.9688,146.8906 1307.4063,146.7031 Q1306.8438,146.5 1306.2813,146.5 Q1305.5781,146.5 1304.9844,146.7813 Q1304.4063,147.0625 1303.9531,147.6875 Q1303.5,148.3125 1303.5,149.1719 L1303.5,150.0938 Q1303.5,151.125 1304.3438,151.8125 Q1305.1875,152.5 1306.6875,152.5 Q1307.5781,152.5 1308.2031,152.2969 Q1308.5625,152.1875 1308.9688,151.8281 Q1309.2344,151.625 1309.375,151.5625 Q1309.5156,151.5 1309.6875,151.5 Q1310.0156,151.5 1310.25,151.7656 Q1310.5,152.0156 1310.5,152.375 Q1310.5,152.7188 1310.1563,153.125 Q1309.6563,153.7188 1308.8594,154.0469 Q1307.8125,154.5 1306.5313,154.5 Q1305.0313,154.5 1303.8281,153.9063 Q1302.8594,153.4375 1302.1719,152.4219 Q1301.5,151.4063 1301.5,150.2031 L1301.5,149.1094 Q1301.5,147.8594 1302.0938,146.7656 Q1302.7031,145.6719 1303.75,145.0938 Q1304.8125,144.5 1306,144.5 Q1306.7188,144.5 1307.3438,144.75 Q1307.9688,145 1308.5,145.5 Z " fill="#000000"/><text fill="#000000" font-family="sans-serif" font-size="14" lengthAdjust="spacing" textLength="98" x="1320.5" y="154.7285">ConcurrentRisk</text><line style="stroke:#181818;stroke-width:0.5;" x1="1292.5" x2="1420.5" y1="165" y2="165"/><line style="stroke:#181818;stroke-width:0.5;" x1="1292.5" x2="1420.5" y1="173" y2="173"/></g><!--MD5=[86c96f66dacf7f7f43798e0c7e9d2ace]
class ITRiskElement--><g id="elem_ITRiskElement"><rect codeLine="14" fill="#F1F1F1" height="48" id="ITRiskElement" rx="2.5" ry="2.5" style="stroke:#181818;stroke-width:0.5;" width="122" x="1615.5" y="133"/><ellipse cx="1630.5" cy="149" fill="#ADD1B2" rx="11" ry="11" style="stroke:#181818;stroke-width:1.0;"/><path d="M1632.5,145.5 Q1632.7031,145 1632.9375,144.75 Q1633.1719,144.5 1633.4375,144.5 Q1633.9063,144.5 1634.2031,144.7813 Q1634.5,145.0625 1634.5,145.7188 L1634.5,147.2813 Q1634.5,147.9375 1634.2188,148.2188 Q1633.9375,148.5 1633.5,148.5 Q1633.1094,148.5 1632.8594,148.3281 Q1632.6094,148.1563 1632.5,147.7031 Q1632.4531,147.3906 1632.2813,147.2188 Q1631.9688,146.8906 1631.4063,146.7031 Q1630.8438,146.5 1630.2813,146.5 Q1629.5781,146.5 1628.9844,146.7813 Q1628.4063,147.0625 1627.9531,147.6875 Q1627.5,148.3125 1627.5,149.1719 L1627.5,150.0938 Q1627.5,151.125 1628.3438,151.8125 Q1629.1875,152.5 1630.6875,152.5 Q1631.5781,152.5 1632.2031,152.2969 Q1632.5625,152.1875 1632.9688,151.8281 Q1633.2344,151.625 1633.375,151.5625 Q1633.5156,151.5 1633.6875,151.5 Q1634.0156,151.5 1634.25,151.7656 Q1634.5,152.0156 1634.5,152.375 Q1634.5,152.7188 1634.1563,153.125 Q1633.6563,153.7188 1632.8594,154.0469 Q1631.8125,154.5 1630.5313,154.5 Q1629.0313,154.5 1627.8281,153.9063 Q1626.8594,153.4375 1626.1719,152.4219 Q1625.5,151.4063 1625.5,150.2031 L1625.5,149.1094 Q1625.5,147.8594 1626.0938,146.7656 Q1626.7031,145.6719 1627.75,145.0938 Q1628.8125,144.5 1630,144.5 Q1630.7188,144.5 1631.3438,144.75 Q1631.9688,145 1632.5,145.5 Z " fill="#000000"/><text fill="#000000" font-family="sans-serif" font-size="14" lengthAdjust="spacing" textLength="90" x="1644.5" y="154.7285">ITRiskElement</text><line style="stroke:#181818;stroke-width:0.5;" x1="1616.5" x2="1736.5" y1="165" y2="165"/><line style="stroke:#181818;stroke-width:0.5;" x1="1616.5" x2="1736.5" y1="173" y2="173"/></g><!--MD5=[775bf429d58df985790f3e63cdd713de]
class ITRiskElementSource--><g id="elem_ITRiskElementSource"><rect codeLine="15" fill="#F1F1F1" height="48" id="ITRiskElementSource" rx="2.5" ry="2.5" style="stroke:#181818;stroke-width:0.5;" width="167" x="1593" y="7"/><ellipse cx="1608" cy="23" fill="#ADD1B2" rx="11" ry="11" style="stroke:#181818;stroke-width:1.0;"/><path d="M1610,19.5 Q1610.2031,19 1610.4375,18.75 Q1610.6719,18.5 1610.9375,18.5 Q1611.4063,18.5 1611.7031,18.7813 Q1612,19.0625 1612,19.7188 L1612,21.2813 Q1612,21.9375 1611.7188,22.2188 Q1611.4375,22.5 1611,22.5 Q1610.6094,22.5 1610.3594,22.3281 Q1610.1094,22.1563 1610,21.7031 Q1609.9531,21.3906 1609.7813,21.2188 Q1609.4688,20.8906 1608.9063,20.7031 Q1608.3438,20.5 1607.7813,20.5 Q1607.0781,20.5 1606.4844,20.7813 Q1605.9063,21.0625 1605.4531,21.6875 Q1605,22.3125 1605,23.1719 L1605,24.0938 Q1605,25.125 1605.8438,25.8125 Q1606.6875,26.5 1608.1875,26.5 Q1609.0781,26.5 1609.7031,26.2969 Q1610.0625,26.1875 1610.4688,25.8281 Q1610.7344,25.625 1610.875,25.5625 Q1611.0156,25.5 1611.1875,25.5 Q1611.5156,25.5 1611.75,25.7656 Q1612,26.0156 1612,26.375 Q1612,26.7188 1611.6563,27.125 Q1611.1563,27.7188 1610.3594,28.0469 Q1609.3125,28.5 1608.0313,28.5 Q1606.5313,28.5 1605.3281,27.9063 Q1604.3594,27.4375 1603.6719,26.4219 Q1603,25.4063 1603,24.2031 L1603,23.1094 Q1603,21.8594 1603.5938,20.7656 Q1604.2031,19.6719 1605.25,19.0938 Q1606.3125,18.5 1607.5,18.5 Q1608.2188,18.5 1608.8438,18.75 Q1609.4688,19 1610,19.5 Z " fill="#000000"/><text fill="#000000" font-family="sans-serif" font-size="14" lengthAdjust="spacing" textLength="135" x="1622" y="28.7285">ITRiskElementSource</text><line style="stroke:#181818;stroke-width:0.5;" x1="1594" x2="1759" y1="39" y2="39"/><line style="stroke:#181818;stroke-width:0.5;" x1="1594" x2="1759" y1="47" y2="47"/></g><!--MD5=[7ddcd20fdae6dee0ce5a887dbea067d9]
class MajorFact--><g id="elem_MajorFact"><rect codeLine="16" fill="#F1F1F1" height="48" id="MajorFact" rx="2.5" ry="2.5" style="stroke:#181818;stroke-width:0.5;" width="95" x="26" y="242"/><ellipse cx="41" cy="258" fill="#ADD1B2" rx="11" ry="11" style="stroke:#181818;stroke-width:1.0;"/><path d="M43,254.5 Q43.2031,254 43.4375,253.75 Q43.6719,253.5 43.9375,253.5 Q44.4063,253.5 44.7031,253.7813 Q45,254.0625 45,254.7188 L45,256.2813 Q45,256.9375 44.7188,257.2188 Q44.4375,257.5 44,257.5 Q43.6094,257.5 43.3594,257.3281 Q43.1094,257.1563 43,256.7031 Q42.9531,256.3906 42.7813,256.2188 Q42.4688,255.8906 41.9063,255.7031 Q41.3438,255.5 40.7813,255.5 Q40.0781,255.5 39.4844,255.7813 Q38.9063,256.0625 38.4531,256.6875 Q38,257.3125 38,258.1719 L38,259.0938 Q38,260.125 38.8438,260.8125 Q39.6875,261.5 41.1875,261.5 Q42.0781,261.5 42.7031,261.2969 Q43.0625,261.1875 43.4688,260.8281 Q43.7344,260.625 43.875,260.5625 Q44.0156,260.5 44.1875,260.5 Q44.5156,260.5 44.75,260.7656 Q45,261.0156 45,261.375 Q45,261.7188 44.6563,262.125 Q44.1563,262.7188 43.3594,263.0469 Q42.3125,263.5 41.0313,263.5 Q39.5313,263.5 38.3281,262.9063 Q37.3594,262.4375 36.6719,261.4219 Q36,260.4063 36,259.2031 L36,258.1094 Q36,256.8594 36.5938,255.7656 Q37.2031,254.6719 38.25,254.0938 Q39.3125,253.5 40.5,253.5 Q41.2188,253.5 41.8438,253.75 Q42.4688,254 43,254.5 Z " fill="#000000"/><text fill="#000000" font-family="sans-serif" font-size="14" lengthAdjust="spacing" textLength="63" x="55" y="263.7285">MajorFact</text><line style="stroke:#181818;stroke-width:0.5;" x1="27" x2="120" y1="274" y2="274"/><line style="stroke:#181818;stroke-width:0.5;" x1="27" x2="120" y1="282" y2="282"/></g><!--MD5=[adc8db700b010fe9b69facdbfe5e73d2]
class MethodologyToHandleRisk--><g id="elem_MethodologyToHandleRisk"><rect codeLine="17" fill="#F1F1F1" height="48" id="MethodologyToHandleRisk" rx="2.5" ry="2.5" style="stroke:#181818;stroke-width:0.5;" width="201" x="697" y="7"/><ellipse cx="712" cy="23" fill="#ADD1B2" rx="11" ry="11" style="stroke:#181818;stroke-width:1.0;"/><path d="M714,19.5 Q714.2031,19 714.4375,18.75 Q714.6719,18.5 714.9375,18.5 Q715.4063,18.5 715.7031,18.7813 Q716,19.0625 716,19.7188 L716,21.2813 Q716,21.9375 715.7188,22.2188 Q715.4375,22.5 715,22.5 Q714.6094,22.5 714.3594,22.3281 Q714.1094,22.1563 714,21.7031 Q713.9531,21.3906 713.7813,21.2188 Q713.4688,20.8906 712.9063,20.7031 Q712.3438,20.5 711.7813,20.5 Q711.0781,20.5 710.4844,20.7813 Q709.9063,21.0625 709.4531,21.6875 Q709,22.3125 709,23.1719 L709,24.0938 Q709,25.125 709.8438,25.8125 Q710.6875,26.5 712.1875,26.5 Q713.0781,26.5 713.7031,26.2969 Q714.0625,26.1875 714.4688,25.8281 Q714.7344,25.625 714.875,25.5625 Q715.0156,25.5 715.1875,25.5 Q715.5156,25.5 715.75,25.7656 Q716,26.0156 716,26.375 Q716,26.7188 715.6563,27.125 Q715.1563,27.7188 714.3594,28.0469 Q713.3125,28.5 712.0313,28.5 Q710.5313,28.5 709.3281,27.9063 Q708.3594,27.4375 707.6719,26.4219 Q707,25.4063 707,24.2031 L707,23.1094 Q707,21.8594 707.5938,20.7656 Q708.2031,19.6719 709.25,19.0938 Q710.3125,18.5 711.5,18.5 Q712.2188,18.5 712.8438,18.75 Q713.4688,19 714,19.5 Z " fill="#000000"/><text fill="#000000" font-family="sans-serif" font-size="14" lengthAdjust="spacing" textLength="169" x="726" y="28.7285">MethodologyToHandleRisk</text><line style="stroke:#181818;stroke-width:0.5;" x1="698" x2="897" y1="39" y2="39"/><line style="stroke:#181818;stroke-width:0.5;" x1="698" x2="897" y1="47" y2="47"/></g><!--MD5=[c93c0dbe2ebbe2988a21a29113d26221]
class PotentialRisksOfTheCompany--><g id="elem_PotentialRisksOfTheCompany"><rect codeLine="18" fill="#F1F1F1" height="48" id="PotentialRisksOfTheCompany" rx="2.5" ry="2.5" style="stroke:#181818;stroke-width:0.5;" width="221" x="156" y="242"/><ellipse cx="171" cy="258" fill="#ADD1B2" rx="11" ry="11" style="stroke:#181818;stroke-width:1.0;"/><path d="M173,254.5 Q173.2031,254 173.4375,253.75 Q173.6719,253.5 173.9375,253.5 Q174.4063,253.5 174.7031,253.7813 Q175,254.0625 175,254.7188 L175,256.2813 Q175,256.9375 174.7188,257.2188 Q174.4375,257.5 174,257.5 Q173.6094,257.5 173.3594,257.3281 Q173.1094,257.1563 173,256.7031 Q172.9531,256.3906 172.7813,256.2188 Q172.4688,255.8906 171.9063,255.7031 Q171.3438,255.5 170.7813,255.5 Q170.0781,255.5 169.4844,255.7813 Q168.9063,256.0625 168.4531,256.6875 Q168,257.3125 168,258.1719 L168,259.0938 Q168,260.125 168.8438,260.8125 Q169.6875,261.5 171.1875,261.5 Q172.0781,261.5 172.7031,261.2969 Q173.0625,261.1875 173.4688,260.8281 Q173.7344,260.625 173.875,260.5625 Q174.0156,260.5 174.1875,260.5 Q174.5156,260.5 174.75,260.7656 Q175,261.0156 175,261.375 Q175,261.7188 174.6563,262.125 Q174.1563,262.7188 173.3594,263.0469 Q172.3125,263.5 171.0313,263.5 Q169.5313,263.5 168.3281,262.9063 Q167.3594,262.4375 166.6719,261.4219 Q166,260.4063 166,259.2031 L166,258.1094 Q166,256.8594 166.5938,255.7656 Q167.2031,254.6719 168.25,254.0938 Q169.3125,253.5 170.5,253.5 Q171.2188,253.5 171.8438,253.75 Q172.4688,254 173,254.5 Z " fill="#000000"/><text fill="#000000" font-family="sans-serif" font-size="14" lengthAdjust="spacing" textLength="189" x="185" y="263.7285">PotentialRisksOfTheCompany</text><line style="stroke:#181818;stroke-width:0.5;" x1="157" x2="376" y1="274" y2="274"/><line style="stroke:#181818;stroke-width:0.5;" x1="157" x2="376" y1="282" y2="282"/></g><!--MD5=[33bfc3d49b3324ea0b3ae26c6e26d8f9]
class RiskEvent--><g id="elem_RiskEvent"><rect codeLine="21" fill="#F1F1F1" height="48" id="RiskEvent" rx="2.5" ry="2.5" style="stroke:#181818;stroke-width:0.5;" width="95" x="412" y="242"/><ellipse cx="427" cy="258" fill="#ADD1B2" rx="11" ry="11" style="stroke:#181818;stroke-width:1.0;"/><path d="M429,254.5 Q429.2031,254 429.4375,253.75 Q429.6719,253.5 429.9375,253.5 Q430.4063,253.5 430.7031,253.7813 Q431,254.0625 431,254.7188 L431,256.2813 Q431,256.9375 430.7188,257.2188 Q430.4375,257.5 430,257.5 Q429.6094,257.5 429.3594,257.3281 Q429.1094,257.1563 429,256.7031 Q428.9531,256.3906 428.7813,256.2188 Q428.4688,255.8906 427.9063,255.7031 Q427.3438,255.5 426.7813,255.5 Q426.0781,255.5 425.4844,255.7813 Q424.9063,256.0625 424.4531,256.6875 Q424,257.3125 424,258.1719 L424,259.0938 Q424,260.125 424.8438,260.8125 Q425.6875,261.5 427.1875,261.5 Q428.0781,261.5 428.7031,261.2969 Q429.0625,261.1875 429.4688,260.8281 Q429.7344,260.625 429.875,260.5625 Q430.0156,260.5 430.1875,260.5 Q430.5156,260.5 430.75,260.7656 Q431,261.0156 431,261.375 Q431,261.7188 430.6563,262.125 Q430.1563,262.7188 429.3594,263.0469 Q428.3125,263.5 427.0313,263.5 Q425.5313,263.5 424.3281,262.9063 Q423.3594,262.4375 422.6719,261.4219 Q422,260.4063 422,259.2031 L422,258.1094 Q422,256.8594 422.5938,255.7656 Q423.2031,254.6719 424.25,254.0938 Q425.3125,253.5 426.5,253.5 Q427.2188,253.5 427.8438,253.75 Q428.4688,254 429,254.5 Z " fill="#000000"/><text fill="#000000" font-family="sans-serif" font-size="14" lengthAdjust="spacing" textLength="63" x="441" y="263.7285">RiskEvent</text><line style="stroke:#181818;stroke-width:0.5;" x1="413" x2="506" y1="274" y2="274"/><line style="stroke:#181818;stroke-width:0.5;" x1="413" x2="506" y1="282" y2="282"/></g><!--MD5=[7b333dcdff7950ab59bc7c01cc91bad6]
class SousProcessus--><g id="elem_SousProcessus"><rect codeLine="22" fill="#F1F1F1" height="48" id="SousProcessus" rx="2.5" ry="2.5" style="stroke:#181818;stroke-width:0.5;" width="130" x="165.5" y="351"/><ellipse cx="180.5" cy="367" fill="#ADD1B2" rx="11" ry="11" style="stroke:#181818;stroke-width:1.0;"/><path d="M182.5,363.5 Q182.7031,363 182.9375,362.75 Q183.1719,362.5 183.4375,362.5 Q183.9063,362.5 184.2031,362.7813 Q184.5,363.0625 184.5,363.7188 L184.5,365.2813 Q184.5,365.9375 184.2188,366.2188 Q183.9375,366.5 183.5,366.5 Q183.1094,366.5 182.8594,366.3281 Q182.6094,366.1563 182.5,365.7031 Q182.4531,365.3906 182.2813,365.2188 Q181.9688,364.8906 181.4063,364.7031 Q180.8438,364.5 180.2813,364.5 Q179.5781,364.5 178.9844,364.7813 Q178.4063,365.0625 177.9531,365.6875 Q177.5,366.3125 177.5,367.1719 L177.5,368.0938 Q177.5,369.125 178.3438,369.8125 Q179.1875,370.5 180.6875,370.5 Q181.5781,370.5 182.2031,370.2969 Q182.5625,370.1875 182.9688,369.8281 Q183.2344,369.625 183.375,369.5625 Q183.5156,369.5 183.6875,369.5 Q184.0156,369.5 184.25,369.7656 Q184.5,370.0156 184.5,370.375 Q184.5,370.7188 184.1563,371.125 Q183.6563,371.7188 182.8594,372.0469 Q181.8125,372.5 180.5313,372.5 Q179.0313,372.5 177.8281,371.9063 Q176.8594,371.4375 176.1719,370.4219 Q175.5,369.4063 175.5,368.2031 L175.5,367.1094 Q175.5,365.8594 176.0938,364.7656 Q176.7031,363.6719 177.75,363.0938 Q178.8125,362.5 180,362.5 Q180.7188,362.5 181.3438,362.75 Q181.9688,363 182.5,363.5 Z " fill="#000000"/><text fill="#000000" font-family="sans-serif" font-size="14" lengthAdjust="spacing" textLength="98" x="194.5" y="372.7285">SousProcessus</text><line style="stroke:#181818;stroke-width:0.5;" x1="166.5" x2="294.5" y1="383" y2="383"/><line style="stroke:#181818;stroke-width:0.5;" x1="166.5" x2="294.5" y1="391" y2="391"/></g><!--MD5=[c3ce0f1c7b7edd596a20bd76f8306501]
class RiskMapping--><g id="elem_RiskMapping"><rect codeLine="23" fill="#F1F1F1" height="48" id="RiskMapping" rx="2.5" ry="2.5" style="stroke:#181818;stroke-width:0.5;" width="113" x="542" y="242"/><ellipse cx="557" cy="258" fill="#ADD1B2" rx="11" ry="11" style="stroke:#181818;stroke-width:1.0;"/><path d="M559,254.5 Q559.2031,254 559.4375,253.75 Q559.6719,253.5 559.9375,253.5 Q560.4063,253.5 560.7031,253.7813 Q561,254.0625 561,254.7188 L561,256.2813 Q561,256.9375 560.7188,257.2188 Q560.4375,257.5 560,257.5 Q559.6094,257.5 559.3594,257.3281 Q559.1094,257.1563 559,256.7031 Q558.9531,256.3906 558.7813,256.2188 Q558.4688,255.8906 557.9063,255.7031 Q557.3438,255.5 556.7813,255.5 Q556.0781,255.5 555.4844,255.7813 Q554.9063,256.0625 554.4531,256.6875 Q554,257.3125 554,258.1719 L554,259.0938 Q554,260.125 554.8438,260.8125 Q555.6875,261.5 557.1875,261.5 Q558.0781,261.5 558.7031,261.2969 Q559.0625,261.1875 559.4688,260.8281 Q559.7344,260.625 559.875,260.5625 Q560.0156,260.5 560.1875,260.5 Q560.5156,260.5 560.75,260.7656 Q561,261.0156 561,261.375 Q561,261.7188 560.6563,262.125 Q560.1563,262.7188 559.3594,263.0469 Q558.3125,263.5 557.0313,263.5 Q555.5313,263.5 554.3281,262.9063 Q553.3594,262.4375 552.6719,261.4219 Q552,260.4063 552,259.2031 L552,258.1094 Q552,256.8594 552.5938,255.7656 Q553.2031,254.6719 554.25,254.0938 Q555.3125,253.5 556.5,253.5 Q557.2188,253.5 557.8438,253.75 Q558.4688,254 559,254.5 Z " fill="#000000"/><text fill="#000000" font-family="sans-serif" font-size="14" lengthAdjust="spacing" textLength="81" x="571" y="263.7285">RiskMapping</text><line style="stroke:#181818;stroke-width:0.5;" x1="543" x2="654" y1="274" y2="274"/><line style="stroke:#181818;stroke-width:0.5;" x1="543" x2="654" y1="282" y2="282"/></g><!--MD5=[c748cfe56790138659bb463e6b74b0d7]
class CommunicationPlan--><g id="elem_CommunicationPlan"><rect codeLine="24" fill="#F1F1F1" height="48" id="CommunicationPlan" rx="2.5" ry="2.5" style="stroke:#181818;stroke-width:0.5;" width="157" x="690" y="242"/><ellipse cx="705" cy="258" fill="#ADD1B2" rx="11" ry="11" style="stroke:#181818;stroke-width:1.0;"/><path d="M707,254.5 Q707.2031,254 707.4375,253.75 Q707.6719,253.5 707.9375,253.5 Q708.4063,253.5 708.7031,253.7813 Q709,254.0625 709,254.7188 L709,256.2813 Q709,256.9375 708.7188,257.2188 Q708.4375,257.5 708,257.5 Q707.6094,257.5 707.3594,257.3281 Q707.1094,257.1563 707,256.7031 Q706.9531,256.3906 706.7813,256.2188 Q706.4688,255.8906 705.9063,255.7031 Q705.3438,255.5 704.7813,255.5 Q704.0781,255.5 703.4844,255.7813 Q702.9063,256.0625 702.4531,256.6875 Q702,257.3125 702,258.1719 L702,259.0938 Q702,260.125 702.8438,260.8125 Q703.6875,261.5 705.1875,261.5 Q706.0781,261.5 706.7031,261.2969 Q707.0625,261.1875 707.4688,260.8281 Q707.7344,260.625 707.875,260.5625 Q708.0156,260.5 708.1875,260.5 Q708.5156,260.5 708.75,260.7656 Q709,261.0156 709,261.375 Q709,261.7188 708.6563,262.125 Q708.1563,262.7188 707.3594,263.0469 Q706.3125,263.5 705.0313,263.5 Q703.5313,263.5 702.3281,262.9063 Q701.3594,262.4375 700.6719,261.4219 Q700,260.4063 700,259.2031 L700,258.1094 Q700,256.8594 700.5938,255.7656 Q701.2031,254.6719 702.25,254.0938 Q703.3125,253.5 704.5,253.5 Q705.2188,253.5 705.8438,253.75 Q706.4688,254 707,254.5 Z " fill="#000000"/><text fill="#000000" font-family="sans-serif" font-size="14" lengthAdjust="spacing" textLength="125" x="719" y="263.7285">CommunicationPlan</text><line style="stroke:#181818;stroke-width:0.5;" x1="691" x2="846" y1="274" y2="274"/><line style="stroke:#181818;stroke-width:0.5;" x1="691" x2="846" y1="282" y2="282"/></g><!--MD5=[ad1e4757e22016d0d03b7830d999a8ff]
class HistoriqueControlesAssuranceQualite--><g id="elem_HistoriqueControlesAssuranceQualite"><rect codeLine="26" fill="#F1F1F1" height="48" id="HistoriqueControlesAssuranceQualite" rx="2.5" ry="2.5" style="stroke:#181818;stroke-width:0.5;" width="268" x="330.5" y="351"/><ellipse cx="345.5" cy="367" fill="#ADD1B2" rx="11" ry="11" style="stroke:#181818;stroke-width:1.0;"/><path d="M347.5,363.5 Q347.7031,363 347.9375,362.75 Q348.1719,362.5 348.4375,362.5 Q348.9063,362.5 349.2031,362.7813 Q349.5,363.0625 349.5,363.7188 L349.5,365.2813 Q349.5,365.9375 349.2188,366.2188 Q348.9375,366.5 348.5,366.5 Q348.1094,366.5 347.8594,366.3281 Q347.6094,366.1563 347.5,365.7031 Q347.4531,365.3906 347.2813,365.2188 Q346.9688,364.8906 346.4063,364.7031 Q345.8438,364.5 345.2813,364.5 Q344.5781,364.5 343.9844,364.7813 Q343.4063,365.0625 342.9531,365.6875 Q342.5,366.3125 342.5,367.1719 L342.5,368.0938 Q342.5,369.125 343.3438,369.8125 Q344.1875,370.5 345.6875,370.5 Q346.5781,370.5 347.2031,370.2969 Q347.5625,370.1875 347.9688,369.8281 Q348.2344,369.625 348.375,369.5625 Q348.5156,369.5 348.6875,369.5 Q349.0156,369.5 349.25,369.7656 Q349.5,370.0156 349.5,370.375 Q349.5,370.7188 349.1563,371.125 Q348.6563,371.7188 347.8594,372.0469 Q346.8125,372.5 345.5313,372.5 Q344.0313,372.5 342.8281,371.9063 Q341.8594,371.4375 341.1719,370.4219 Q340.5,369.4063 340.5,368.2031 L340.5,367.1094 Q340.5,365.8594 341.0938,364.7656 Q341.7031,363.6719 342.75,363.0938 Q343.8125,362.5 345,362.5 Q345.7188,362.5 346.3438,362.75 Q346.9688,363 347.5,363.5 Z " fill="#000000"/><text fill="#000000" font-family="sans-serif" font-size="14" lengthAdjust="spacing" textLength="236" x="359.5" y="372.7285">HistoriqueControlesAssuranceQualite</text><line style="stroke:#181818;stroke-width:0.5;" x1="331.5" x2="597.5" y1="383" y2="383"/><line style="stroke:#181818;stroke-width:0.5;" x1="331.5" x2="597.5" y1="391" y2="391"/></g><!--MD5=[7674497eec10b89b2b336636e4285f46]
class MechanismsDescription--><g id="elem_MechanismsDescription"><rect codeLine="27" fill="#F1F1F1" height="48" id="MechanismsDescription" rx="2.5" ry="2.5" style="stroke:#181818;stroke-width:0.5;" width="181" x="882" y="242"/><ellipse cx="897" cy="258" fill="#ADD1B2" rx="11" ry="11" style="stroke:#181818;stroke-width:1.0;"/><path d="M899,254.5 Q899.2031,254 899.4375,253.75 Q899.6719,253.5 899.9375,253.5 Q900.4063,253.5 900.7031,253.7813 Q901,254.0625 901,254.7188 L901,256.2813 Q901,256.9375 900.7188,257.2188 Q900.4375,257.5 900,257.5 Q899.6094,257.5 899.3594,257.3281 Q899.1094,257.1563 899,256.7031 Q898.9531,256.3906 898.7813,256.2188 Q898.4688,255.8906 897.9063,255.7031 Q897.3438,255.5 896.7813,255.5 Q896.0781,255.5 895.4844,255.7813 Q894.9063,256.0625 894.4531,256.6875 Q894,257.3125 894,258.1719 L894,259.0938 Q894,260.125 894.8438,260.8125 Q895.6875,261.5 897.1875,261.5 Q898.0781,261.5 898.7031,261.2969 Q899.0625,261.1875 899.4688,260.8281 Q899.7344,260.625 899.875,260.5625 Q900.0156,260.5 900.1875,260.5 Q900.5156,260.5 900.75,260.7656 Q901,261.0156 901,261.375 Q901,261.7188 900.6563,262.125 Q900.1563,262.7188 899.3594,263.0469 Q898.3125,263.5 897.0313,263.5 Q895.5313,263.5 894.3281,262.9063 Q893.3594,262.4375 892.6719,261.4219 Q892,260.4063 892,259.2031 L892,258.1094 Q892,256.8594 892.5938,255.7656 Q893.2031,254.6719 894.25,254.0938 Q895.3125,253.5 896.5,253.5 Q897.2188,253.5 897.8438,253.75 Q898.4688,254 899,254.5 Z " fill="#000000"/><text fill="#000000" font-family="sans-serif" font-size="14" lengthAdjust="spacing" textLength="149" x="911" y="263.7285">MechanismsDescription</text><line style="stroke:#181818;stroke-width:0.5;" x1="883" x2="1062" y1="274" y2="274"/><line style="stroke:#181818;stroke-width:0.5;" x1="883" x2="1062" y1="282" y2="282"/></g><!--MD5=[a9bf473d677511621ad3ba7c67e18359]
class MetricsOfRiskGovernance--><g id="elem_MetricsOfRiskGovernance"><rect codeLine="28" fill="#F1F1F1" height="48" id="MetricsOfRiskGovernance" rx="2.5" ry="2.5" style="stroke:#181818;stroke-width:0.5;" width="197" x="634" y="351"/><ellipse cx="649" cy="367" fill="#ADD1B2" rx="11" ry="11" style="stroke:#181818;stroke-width:1.0;"/><path d="M651,363.5 Q651.2031,363 651.4375,362.75 Q651.6719,362.5 651.9375,362.5 Q652.4063,362.5 652.7031,362.7813 Q653,363.0625 653,363.7188 L653,365.2813 Q653,365.9375 652.7188,366.2188 Q652.4375,366.5 652,366.5 Q651.6094,366.5 651.3594,366.3281 Q651.1094,366.1563 651,365.7031 Q650.9531,365.3906 650.7813,365.2188 Q650.4688,364.8906 649.9063,364.7031 Q649.3438,364.5 648.7813,364.5 Q648.0781,364.5 647.4844,364.7813 Q646.9063,365.0625 646.4531,365.6875 Q646,366.3125 646,367.1719 L646,368.0938 Q646,369.125 646.8438,369.8125 Q647.6875,370.5 649.1875,370.5 Q650.0781,370.5 650.7031,370.2969 Q651.0625,370.1875 651.4688,369.8281 Q651.7344,369.625 651.875,369.5625 Q652.0156,369.5 652.1875,369.5 Q652.5156,369.5 652.75,369.7656 Q653,370.0156 653,370.375 Q653,370.7188 652.6563,371.125 Q652.1563,371.7188 651.3594,372.0469 Q650.3125,372.5 649.0313,372.5 Q647.5313,372.5 646.3281,371.9063 Q645.3594,371.4375 644.6719,370.4219 Q644,369.4063 644,368.2031 L644,367.1094 Q644,365.8594 644.5938,364.7656 Q645.2031,363.6719 646.25,363.0938 Q647.3125,362.5 648.5,362.5 Q649.2188,362.5 649.8438,362.75 Q650.4688,363 651,363.5 Z " fill="#000000"/><text fill="#000000" font-family="sans-serif" font-size="14" lengthAdjust="spacing" textLength="165" x="663" y="372.7285">MetricsOfRiskGovernance</text><line style="stroke:#181818;stroke-width:0.5;" x1="635" x2="830" y1="383" y2="383"/><line style="stroke:#181818;stroke-width:0.5;" x1="635" x2="830" y1="391" y2="391"/></g><!--MD5=[de5a64161ca52ee190e7e873704b9eba]
class BusinessContinuityPlan--><g id="elem_BusinessContinuityPlan"><rect codeLine="31" fill="#F1F1F1" height="48" id="BusinessContinuityPlan" rx="2.5" ry="2.5" style="stroke:#181818;stroke-width:0.5;" width="180" x="1098.5" y="242"/><ellipse cx="1113.5" cy="258" fill="#ADD1B2" rx="11" ry="11" style="stroke:#181818;stroke-width:1.0;"/><path d="M1115.5,254.5 Q1115.7031,254 1115.9375,253.75 Q1116.1719,253.5 1116.4375,253.5 Q1116.9063,253.5 1117.2031,253.7813 Q1117.5,254.0625 1117.5,254.7188 L1117.5,256.2813 Q1117.5,256.9375 1117.2188,257.2188 Q1116.9375,257.5 1116.5,257.5 Q1116.1094,257.5 1115.8594,257.3281 Q1115.6094,257.1563 1115.5,256.7031 Q1115.4531,256.3906 1115.2813,256.2188 Q1114.9688,255.8906 1114.4063,255.7031 Q1113.8438,255.5 1113.2813,255.5 Q1112.5781,255.5 1111.9844,255.7813 Q1111.4063,256.0625 1110.9531,256.6875 Q1110.5,257.3125 1110.5,258.1719 L1110.5,259.0938 Q1110.5,260.125 1111.3438,260.8125 Q1112.1875,261.5 1113.6875,261.5 Q1114.5781,261.5 1115.2031,261.2969 Q1115.5625,261.1875 1115.9688,260.8281 Q1116.2344,260.625 1116.375,260.5625 Q1116.5156,260.5 1116.6875,260.5 Q1117.0156,260.5 1117.25,260.7656 Q1117.5,261.0156 1117.5,261.375 Q1117.5,261.7188 1117.1563,262.125 Q1116.6563,262.7188 1115.8594,263.0469 Q1114.8125,263.5 1113.5313,263.5 Q1112.0313,263.5 1110.8281,262.9063 Q1109.8594,262.4375 1109.1719,261.4219 Q1108.5,260.4063 1108.5,259.2031 L1108.5,258.1094 Q1108.5,256.8594 1109.0938,255.7656 Q1109.7031,254.6719 1110.75,254.0938 Q1111.8125,253.5 1113,253.5 Q1113.7188,253.5 1114.3438,253.75 Q1114.9688,254 1115.5,254.5 Z " fill="#000000"/><text fill="#000000" font-family="sans-serif" font-size="14" lengthAdjust="spacing" textLength="148" x="1127.5" y="263.7285">BusinessContinuityPlan</text><line style="stroke:#181818;stroke-width:0.5;" x1="1099.5" x2="1277.5" y1="274" y2="274"/><line style="stroke:#181818;stroke-width:0.5;" x1="1099.5" x2="1277.5" y1="282" y2="282"/></g><!--MD5=[018bcbdbb780fc1f268c4b7894de1f78]
class KriMeasures--><g id="elem_KriMeasures"><rect codeLine="32" fill="#F1F1F1" height="48" id="KriMeasures" rx="2.5" ry="2.5" style="stroke:#181818;stroke-width:0.5;" width="111" x="866" y="351"/><ellipse cx="881" cy="367" fill="#ADD1B2" rx="11" ry="11" style="stroke:#181818;stroke-width:1.0;"/><path d="M883,363.5 Q883.2031,363 883.4375,362.75 Q883.6719,362.5 883.9375,362.5 Q884.4063,362.5 884.7031,362.7813 Q885,363.0625 885,363.7188 L885,365.2813 Q885,365.9375 884.7188,366.2188 Q884.4375,366.5 884,366.5 Q883.6094,366.5 883.3594,366.3281 Q883.1094,366.1563 883,365.7031 Q882.9531,365.3906 882.7813,365.2188 Q882.4688,364.8906 881.9063,364.7031 Q881.3438,364.5 880.7813,364.5 Q880.0781,364.5 879.4844,364.7813 Q878.9063,365.0625 878.4531,365.6875 Q878,366.3125 878,367.1719 L878,368.0938 Q878,369.125 878.8438,369.8125 Q879.6875,370.5 881.1875,370.5 Q882.0781,370.5 882.7031,370.2969 Q883.0625,370.1875 883.4688,369.8281 Q883.7344,369.625 883.875,369.5625 Q884.0156,369.5 884.1875,369.5 Q884.5156,369.5 884.75,369.7656 Q885,370.0156 885,370.375 Q885,370.7188 884.6563,371.125 Q884.1563,371.7188 883.3594,372.0469 Q882.3125,372.5 881.0313,372.5 Q879.5313,372.5 878.3281,371.9063 Q877.3594,371.4375 876.6719,370.4219 Q876,369.4063 876,368.2031 L876,367.1094 Q876,365.8594 876.5938,364.7656 Q877.2031,363.6719 878.25,363.0938 Q879.3125,362.5 880.5,362.5 Q881.2188,362.5 881.8438,362.75 Q882.4688,363 883,363.5 Z " fill="#000000"/><text fill="#000000" font-family="sans-serif" font-size="14" lengthAdjust="spacing" textLength="79" x="895" y="372.7285">KriMeasures</text><line style="stroke:#181818;stroke-width:0.5;" x1="867" x2="976" y1="383" y2="383"/><line style="stroke:#181818;stroke-width:0.5;" x1="867" x2="976" y1="391" y2="391"/></g><!--MD5=[9186e8c8c64e7aac8e176bf691a267b1]
class ObjectifProgression--><g id="elem_ObjectifProgression"><rect codeLine="33" fill="#F1F1F1" height="48" id="ObjectifProgression" rx="2.5" ry="2.5" style="stroke:#181818;stroke-width:0.5;" width="156" x="1313.5" y="242"/><ellipse cx="1328.5" cy="258" fill="#ADD1B2" rx="11" ry="11" style="stroke:#181818;stroke-width:1.0;"/><path d="M1330.5,254.5 Q1330.7031,254 1330.9375,253.75 Q1331.1719,253.5 1331.4375,253.5 Q1331.9063,253.5 1332.2031,253.7813 Q1332.5,254.0625 1332.5,254.7188 L1332.5,256.2813 Q1332.5,256.9375 1332.2188,257.2188 Q1331.9375,257.5 1331.5,257.5 Q1331.1094,257.5 1330.8594,257.3281 Q1330.6094,257.1563 1330.5,256.7031 Q1330.4531,256.3906 1330.2813,256.2188 Q1329.9688,255.8906 1329.4063,255.7031 Q1328.8438,255.5 1328.2813,255.5 Q1327.5781,255.5 1326.9844,255.7813 Q1326.4063,256.0625 1325.9531,256.6875 Q1325.5,257.3125 1325.5,258.1719 L1325.5,259.0938 Q1325.5,260.125 1326.3438,260.8125 Q1327.1875,261.5 1328.6875,261.5 Q1329.5781,261.5 1330.2031,261.2969 Q1330.5625,261.1875 1330.9688,260.8281 Q1331.2344,260.625 1331.375,260.5625 Q1331.5156,260.5 1331.6875,260.5 Q1332.0156,260.5 1332.25,260.7656 Q1332.5,261.0156 1332.5,261.375 Q1332.5,261.7188 1332.1563,262.125 Q1331.6563,262.7188 1330.8594,263.0469 Q1329.8125,263.5 1328.5313,263.5 Q1327.0313,263.5 1325.8281,262.9063 Q1324.8594,262.4375 1324.1719,261.4219 Q1323.5,260.4063 1323.5,259.2031 L1323.5,258.1094 Q1323.5,256.8594 1324.0938,255.7656 Q1324.7031,254.6719 1325.75,254.0938 Q1326.8125,253.5 1328,253.5 Q1328.7188,253.5 1329.3438,253.75 Q1329.9688,254 1330.5,254.5 Z " fill="#000000"/><text fill="#000000" font-family="sans-serif" font-size="14" lengthAdjust="spacing" textLength="124" x="1342.5" y="263.7285">ObjectifProgression</text><line style="stroke:#181818;stroke-width:0.5;" x1="1314.5" x2="1468.5" y1="274" y2="274"/><line style="stroke:#181818;stroke-width:0.5;" x1="1314.5" x2="1468.5" y1="282" y2="282"/></g><!--MD5=[36f8a7bfb349ed7210f957281fc4e831]
class ProblemDescription--><g id="elem_ProblemDescription"><rect codeLine="34" fill="#F1F1F1" height="48" id="ProblemDescription" rx="2.5" ry="2.5" style="stroke:#181818;stroke-width:0.5;" width="155" x="1505" y="242"/><ellipse cx="1520" cy="258" fill="#ADD1B2" rx="11" ry="11" style="stroke:#181818;stroke-width:1.0;"/><path d="M1522,254.5 Q1522.2031,254 1522.4375,253.75 Q1522.6719,253.5 1522.9375,253.5 Q1523.4063,253.5 1523.7031,253.7813 Q1524,254.0625 1524,254.7188 L1524,256.2813 Q1524,256.9375 1523.7188,257.2188 Q1523.4375,257.5 1523,257.5 Q1522.6094,257.5 1522.3594,257.3281 Q1522.1094,257.1563 1522,256.7031 Q1521.9531,256.3906 1521.7813,256.2188 Q1521.4688,255.8906 1520.9063,255.7031 Q1520.3438,255.5 1519.7813,255.5 Q1519.0781,255.5 1518.4844,255.7813 Q1517.9063,256.0625 1517.4531,256.6875 Q1517,257.3125 1517,258.1719 L1517,259.0938 Q1517,260.125 1517.8438,260.8125 Q1518.6875,261.5 1520.1875,261.5 Q1521.0781,261.5 1521.7031,261.2969 Q1522.0625,261.1875 1522.4688,260.8281 Q1522.7344,260.625 1522.875,260.5625 Q1523.0156,260.5 1523.1875,260.5 Q1523.5156,260.5 1523.75,260.7656 Q1524,261.0156 1524,261.375 Q1524,261.7188 1523.6563,262.125 Q1523.1563,262.7188 1522.3594,263.0469 Q1521.3125,263.5 1520.0313,263.5 Q1518.5313,263.5 1517.3281,262.9063 Q1516.3594,262.4375 1515.6719,261.4219 Q1515,260.4063 1515,259.2031 L1515,258.1094 Q1515,256.8594 1515.5938,255.7656 Q1516.2031,254.6719 1517.25,254.0938 Q1518.3125,253.5 1519.5,253.5 Q1520.2188,253.5 1520.8438,253.75 Q1521.4688,254 1522,254.5 Z " fill="#000000"/><text fill="#000000" font-family="sans-serif" font-size="14" lengthAdjust="spacing" textLength="123" x="1534" y="263.7285">ProblemDescription</text><line style="stroke:#181818;stroke-width:0.5;" x1="1506" x2="1659" y1="274" y2="274"/><line style="stroke:#181818;stroke-width:0.5;" x1="1506" x2="1659" y1="282" y2="282"/></g><!--MD5=[d0a03d0efec7974ee48c256a4d17988a]
link FileInfo to Organization--><g id="link_FileInfo_Organization"><path codeLine="37" d="M521.86,55.27 C524.02,70.89 529.38,90.77 542.5,103 C566.82,125.67 653.67,141.14 712.35,149.26 " fill="none" id="FileInfo-Organization" style="stroke:#181818;stroke-width:1.0;"/><text fill="#000000" font-family="sans-serif" font-size="13" lengthAdjust="spacing" textLength="20" x="499.754" y="76.6738">1..*</text><text fill="#000000" font-family="sans-serif" font-size="13" lengthAdjust="spacing" textLength="7" x="697.3345" y="144.6637">1</text></g><!--MD5=[d0a03d0efec7974ee48c256a4d17988a]
link FileInfo to Organization--><g id="link_FileInfo_Organization"><path codeLine="58" d="M531.66,55.07 C540.41,70.81 554.03,90.91 571.5,103 C613.44,132.02 670.53,145.16 712.45,151.11 " fill="none" id="FileInfo-Organization-1" style="stroke:#181818;stroke-width:1.0;"/><text fill="#000000" font-family="sans-serif" font-size="13" lengthAdjust="spacing" textLength="135" x="572.5" y="99.4951">photo du Logilogramme</text><text fill="#000000" font-family="sans-serif" font-size="13" lengthAdjust="spacing" textLength="7" x="526.5271" y="76.425">1</text><text fill="#000000" font-family="sans-serif" font-size="13" lengthAdjust="spacing" textLength="7" x="697.6703" y="144.748">1</text></g><!--MD5=[cefed3064f8a2904e573b7e2985b9a81]
link MajorRisks to Organization--><g id="link_MajorRisks_Organization"><path codeLine="38" d="M943.56,55.03 C905.07,77.24 847.13,110.65 808.59,132.88 " fill="none" id="MajorRisks-Organization" style="stroke:#181818;stroke-width:1.0;"/><text fill="#000000" font-family="sans-serif" font-size="13" lengthAdjust="spacing" textLength="20" x="911.3871" y="76.3753">1..*</text><text fill="#000000" font-family="sans-serif" font-size="13" lengthAdjust="spacing" textLength="7" x="810.9662" y="122.1894">1</text></g><!--MD5=[1cf0cce1673b4ef433c0cb2f57ec9209]
link StrategicOrientations to Organization--><g id="link_StrategicOrientations_Organization"><path codeLine="39" d="M1392.9,51.35 C1387.02,52.62 1381.17,53.85 1375.5,55 C1173.97,95.93 932.3,132.41 824.81,148 " fill="none" id="StrategicOrientations-Organization" style="stroke:#181818;stroke-width:1.0;"/><text fill="#000000" font-family="sans-serif" font-size="13" lengthAdjust="spacing" textLength="20" x="1365.9047" y="50.1128">1..*</text><text fill="#000000" font-family="sans-serif" font-size="13" lengthAdjust="spacing" textLength="7" x="832.4732" y="143.3395">1</text></g><!--MD5=[bebb3bb3787cb38e82b6d799bfe3c69f]
link Stakeholders to Organization--><g id="link_Stakeholders_Organization"><path codeLine="40" d="M248.12,50.09 C253.98,51.8 259.85,53.47 265.5,55 C354.98,79.27 377.7,84.26 468.5,103 C553.19,120.48 652.07,137.25 712.47,147.09 " fill="none" id="Stakeholders-Organization" style="stroke:#181818;stroke-width:1.0;"/><text fill="#000000" font-family="sans-serif" font-size="13" lengthAdjust="spacing" textLength="20" x="254.8605" y="49.0252">1..*</text><text fill="#000000" font-family="sans-serif" font-size="13" lengthAdjust="spacing" textLength="7" x="697.4707" y="142.2021">1</text></g><!--MD5=[8284b60981921246c1a5b9b3f59dfc5c]
link TeamProjectMember to Organization--><g id="link_TeamProjectMember_Organization"><path codeLine="41" d="M408.83,55.12 C439.73,70.47 482.29,90.09 521.5,103 C585.45,124.05 661.51,138.91 712.17,147.44 " fill="none" id="TeamProjectMember-Organization" style="stroke:#181818;stroke-width:1.0;"/><text fill="#000000" font-family="sans-serif" font-size="13" lengthAdjust="spacing" textLength="20" x="397.1979" y="76.4872">1..*</text><text fill="#000000" font-family="sans-serif" font-size="13" lengthAdjust="spacing" textLength="7" x="697.5043" y="160.7578">1</text></g><!--MD5=[a3cbb147e7804c76d82dc07e6a98460a]
link Objective to Organization--><g id="link_Objective_Organization"><path codeLine="42" d="M98.31,49.75 C104.05,51.67 109.88,53.48 115.5,55 C331.67,113.65 597.95,141.59 712.15,151.55 " fill="none" id="Objective-Organization" style="stroke:#181818;stroke-width:1.0;"/><text fill="#000000" font-family="sans-serif" font-size="13" lengthAdjust="spacing" textLength="7" x="105.8606" y="48.9181">1</text><text fill="#000000" font-family="sans-serif" font-size="13" lengthAdjust="spacing" textLength="7" x="697.2859" y="165.8117">1</text></g><!--MD5=[416b8f8e8c2119a613e074730679f323]
link ImplementationInfo to Organization--><g id="link_ImplementationInfo_Organization"><path codeLine="43" d="M1074.66,55.03 C1002.56,78.81 891.46,115.45 824.79,137.44 " fill="none" id="ImplementationInfo-Organization" style="stroke:#181818;stroke-width:1.0;"/><text fill="#000000" font-family="sans-serif" font-size="13" lengthAdjust="spacing" textLength="7" x="1054.5963" y="74.2618">1</text><text fill="#000000" font-family="sans-serif" font-size="13" lengthAdjust="spacing" textLength="7" x="832.4506" y="131.4265">1</text></g><!--MD5=[8b177458859bc11686dc2971bc11af5f]
link Gantt to Organization--><g id="link_Gantt_Organization"><path codeLine="44" d="M662.39,48.3 C679.7,57.6 700.44,70.32 716.5,85 C731.73,98.91 745.35,117.9 754.84,132.73 " fill="none" id="Gantt-Organization" style="stroke:#181818;stroke-width:1.0;"/><text fill="#000000" font-family="sans-serif" font-size="13" lengthAdjust="spacing" textLength="7" x="670.1017" y="47.7495">1</text><text fill="#000000" font-family="sans-serif" font-size="13" lengthAdjust="spacing" textLength="7" x="743.4428" y="122.001">1</text></g><!--MD5=[ad9c6438a9a5174781706fb6f9fa26a5]
link MethodologyToHandleRisk to Organization--><g id="link_MethodologyToHandleRisk_Organization"><path codeLine="46" d="M792.11,55.03 C786.94,77.17 779.16,110.44 773.96,132.67 " fill="none" id="MethodologyToHandleRisk-Organization" style="stroke:#181818;stroke-width:1.0;"/><text fill="#000000" font-family="sans-serif" font-size="13" lengthAdjust="spacing" textLength="7" x="782.9431" y="76.3753">1</text><text fill="#000000" font-family="sans-serif" font-size="13" lengthAdjust="spacing" textLength="7" x="767.4378" y="122.3275">1</text></g><!--MD5=[0c0086099e8d23826d3d5e392a450efc]
link Organization to PotentialRisksOfTheCompany--><g id="link_Organization_PotentialRisksOfTheCompany"><path codeLine="47" d="M712.38,169.96 C630.89,187.33 478.24,219.87 374.5,241.98 " fill="none" id="Organization-PotentialRisksOfTheCompany" style="stroke:#181818;stroke-width:1.0;"/><text fill="#000000" font-family="sans-serif" font-size="13" lengthAdjust="spacing" textLength="7" x="697.3686" y="168.1452">1</text><text fill="#000000" font-family="sans-serif" font-size="13" lengthAdjust="spacing" textLength="20" x="379.6125" y="231.315">1..*</text></g><!--MD5=[cf0d0364bfef3dfc41713cc75b1b41e2]
link Organization to MajorFact--><g id="link_Organization_MajorFact"><path codeLine="48" d="M712.16,161.58 C601.1,169.48 346.62,191.88 138.5,242 C132.8,243.37 126.9,245.06 121.08,246.9 " fill="none" id="Organization-MajorFact" style="stroke:#181818;stroke-width:1.0;"/><text fill="#000000" font-family="sans-serif" font-size="13" lengthAdjust="spacing" textLength="7" x="697.493" y="176.7095">1</text><text fill="#000000" font-family="sans-serif" font-size="13" lengthAdjust="spacing" textLength="20" x="128.1825" y="240.369">1..*</text></g><!--MD5=[37c19895dd6967f5408fbe1b9629ada9]
link ITRiskElementSource to Organization--><g id="link_ITRiskElementSource_Organization"><path codeLine="49" d="M1592.86,51.72 C1587,52.89 1581.17,54 1575.5,55 C1295.31,104.38 956.23,138.6 824.56,150.93 " fill="none" id="ITRiskElementSource-Organization" style="stroke:#181818;stroke-width:1.0;"/><text fill="#000000" font-family="sans-serif" font-size="13" lengthAdjust="spacing" textLength="20" x="1565.1054" y="50.283">1..*</text><text fill="#000000" font-family="sans-serif" font-size="13" lengthAdjust="spacing" textLength="7" x="832.3425" y="165.0174">1</text></g><!--MD5=[68c604428d71e2477a08e8ec9ce17de8]
link ITRiskElementSource to ITRiskElement--><g id="link_ITRiskElementSource_ITRiskElement"><path codeLine="50" d="M1676.5,55.03 C1676.5,77.17 1676.5,110.44 1676.5,132.67 " fill="none" id="ITRiskElementSource-ITRiskElement" style="stroke:#181818;stroke-width:1.0;"/><text fill="#000000" font-family="sans-serif" font-size="13" lengthAdjust="spacing" textLength="7" x="1668.6469" y="76.3753">1</text><text fill="#000000" font-family="sans-serif" font-size="13" lengthAdjust="spacing" textLength="20" x="1654.0625" y="122.3275">1..*</text></g><!--MD5=[50e4d6eb304c33df7dbecee97f008a79]
link Concurrent to Organization--><g id="link_Concurrent_Organization"><path codeLine="51" d="M1254.69,49.95 C1248.92,51.74 1243.1,53.47 1237.5,55 C1090.08,95.31 913.03,129.73 824.57,145.99 " fill="none" id="Concurrent-Organization" style="stroke:#181818;stroke-width:1.0;"/><text fill="#000000" font-family="sans-serif" font-size="13" lengthAdjust="spacing" textLength="20" x="1227.1569" y="48.8011">1..*</text><text fill="#000000" font-family="sans-serif" font-size="13" lengthAdjust="spacing" textLength="7" x="832.3553" y="138.188">1</text></g><!--MD5=[b9ec7153e341babfa521f1163e11de7d]
link Concurrent to ConcurrentRisk--><g id="link_Concurrent_ConcurrentRisk"><path codeLine="52" d="M1315.79,55.03 C1324.71,77.17 1338.13,110.44 1347.09,132.67 " fill="none" id="Concurrent-ConcurrentRisk" style="stroke:#181818;stroke-width:1.0;"/><text fill="#000000" font-family="sans-serif" font-size="13" lengthAdjust="spacing" textLength="7" x="1310.2013" y="76.3753">1</text><text fill="#000000" font-family="sans-serif" font-size="13" lengthAdjust="spacing" textLength="20" x="1322.3588" y="122.3275">1..*</text></g><!--MD5=[30d496a6a20b17ddd1fcfc2693328114]
link Organization to RiskEvent--><g id="link_Organization_RiskEvent"><path codeLine="54" d="M712.24,177.21 C662.76,194.15 588.79,219.56 524.5,242 C518.85,243.97 512.93,246.05 507.05,248.12 " fill="none" id="Organization-RiskEvent" style="stroke:#181818;stroke-width:1.0;"/><text fill="#000000" font-family="sans-serif" font-size="13" lengthAdjust="spacing" textLength="7" x="697.5833" y="194.342">1</text><text fill="#000000" font-family="sans-serif" font-size="13" lengthAdjust="spacing" textLength="20" x="514.1114" y="241.5882">1..*</text></g><!--MD5=[5c7736eab000247d5c6f72eba6c9e2cc]
link RiskMapping to SousProcessus--><g id="link_RiskMapping_SousProcessus"><path codeLine="55" d="M541.98,284.71 C536.08,286.52 530.17,288.31 524.5,290 C481.77,302.74 368.51,334.94 295.69,355.56 " fill="none" id="RiskMapping-SousProcessus" style="stroke:#181818;stroke-width:1.0;"/><text fill="#000000" font-family="sans-serif" font-size="13" lengthAdjust="spacing" textLength="7" x="526.9148" y="283.6679">1</text><text fill="#000000" font-family="sans-serif" font-size="13" lengthAdjust="spacing" textLength="20" x="302.7359" y="350.1025">1..*</text></g><!--MD5=[5f0fa6e0e7ce9cefcf916774ac95094d]
link Organization to RiskMapping--><g id="link_Organization_RiskMapping"><path codeLine="56" d="M731.61,181.22 C703.1,199.16 663.81,223.89 635.32,241.83 " fill="none" id="Organization-RiskMapping" style="stroke:#181818;stroke-width:1.0;"/><text fill="#000000" font-family="sans-serif" font-size="13" lengthAdjust="spacing" textLength="7" x="714.7649" y="202.6116">1</text><text fill="#000000" font-family="sans-serif" font-size="13" lengthAdjust="spacing" textLength="20" x="622.1926" y="231.1266">1..*</text></g><!--MD5=[53f2622e4c4e87228c2d249782bb6e74]
link Organization to CommunicationPlan--><g id="link_Organization_CommunicationPlan"><path codeLine="59" d="M768.5,181.22 C768.5,199.16 768.5,223.89 768.5,241.83 " fill="none" id="Organization-CommunicationPlan" style="stroke:#181818;stroke-width:1.0;"/><text fill="#000000" font-family="sans-serif" font-size="13" lengthAdjust="spacing" textLength="7" x="760.6469" y="202.6116">1</text><text fill="#000000" font-family="sans-serif" font-size="13" lengthAdjust="spacing" textLength="20" x="745.9375" y="231.1266">1..*</text></g><!--MD5=[34f629b3ad708d3bebab5858059c4f4a]
link Organization to MechanismsDescription--><g id="link_Organization_MechanismsDescription"><path codeLine="60" d="M812.51,181.09 C846.83,199.09 894.27,223.97 928.57,241.96 " fill="none" id="Organization-MechanismsDescription" style="stroke:#181818;stroke-width:1.0;"/><text fill="#000000" font-family="sans-serif" font-size="13" lengthAdjust="spacing" textLength="7" x="815.3843" y="202.4499">1</text><text fill="#000000" font-family="sans-serif" font-size="13" lengthAdjust="spacing" textLength="7" x="909.4161" y="231.2899">1</text></g><!--MD5=[a925ac986625da0d93eacd70e7ce9a92]
link RiskMapping to HistoriqueControlesAssuranceQualite--><g id="link_RiskMapping_HistoriqueControlesAssuranceQualite"><path codeLine="61" d="M569.42,290.22 C546.95,308.16 515.98,332.89 493.52,350.83 " fill="none" id="RiskMapping-HistoriqueControlesAssuranceQualite" style="stroke:#181818;stroke-width:1.0;"/><text fill="#000000" font-family="sans-serif" font-size="13" lengthAdjust="spacing" textLength="7" x="554.4786" y="311.6116">1</text><text fill="#000000" font-family="sans-serif" font-size="13" lengthAdjust="spacing" textLength="20" x="478.3939" y="340.1266">1..*</text></g><!--MD5=[f5b67a55c921067b2946b3e6b8ba44e9]
link RiskMapping to MetricsOfRiskGovernance--><g id="link_RiskMapping_MetricsOfRiskGovernance"><path codeLine="62" d="M627.58,290.22 C650.05,308.16 681.02,332.89 703.48,350.83 " fill="none" id="RiskMapping-MetricsOfRiskGovernance" style="stroke:#181818;stroke-width:1.0;"/><text fill="#000000" font-family="sans-serif" font-size="13" lengthAdjust="spacing" textLength="7" x="626.8151" y="311.6116">1</text><text fill="#000000" font-family="sans-serif" font-size="13" lengthAdjust="spacing" textLength="20" x="673.4811" y="340.1266">1..*</text></g><!--MD5=[0811da28cdb66ea09f57181310ef3142]
link Organization to ObjectifProgression--><g id="link_Organization_ObjectifProgression"><path codeLine="64" d="M824.64,165.43 C921.39,178.57 1125.62,207.78 1296.5,242 C1301.99,243.1 1307.64,244.3 1313.33,245.55 " fill="none" id="Organization-ObjectifProgression" style="stroke:#181818;stroke-width:1.0;"/><text fill="#000000" font-family="sans-serif" font-size="13" lengthAdjust="spacing" textLength="7" x="832.6541" y="163.0065">1</text><text fill="#000000" font-family="sans-serif" font-size="13" lengthAdjust="spacing" textLength="20" x="1285.4774" y="240.5269">1..*</text></g><!--MD5=[a362e7b0d48ad462dc908de5c5dce54a]
link Organization to ProblemDescription--><g id="link_Organization_ProblemDescription"><path codeLine="65" d="M824.78,162.24 C946.4,171.91 1242.55,198.21 1487.5,242 C1493.18,243.02 1499.03,244.17 1504.9,245.4 " fill="none" id="Organization-ProblemDescription" style="stroke:#181818;stroke-width:1.0;"/><text fill="#000000" font-family="sans-serif" font-size="13" lengthAdjust="spacing" textLength="7" x="832.4393" y="177.454">1</text><text fill="#000000" font-family="sans-serif" font-size="13" lengthAdjust="spacing" textLength="7" x="1489.9167" y="240.0971">1</text></g><!--MD5=[3e61c5ba82869c9fb01c509662c80dd1]
link Organization to BusinessContinuityPlan--><g id="link_Organization_BusinessContinuityPlan"><path codeLine="66" d="M824.71,172.32 C894.78,190.17 1015.44,220.91 1098.46,242.06 " fill="none" id="Organization-BusinessContinuityPlan" style="stroke:#181818;stroke-width:1.0;"/><text fill="#000000" font-family="sans-serif" font-size="13" lengthAdjust="spacing" textLength="7" x="832.3603" y="188.8255">1</text><text fill="#000000" font-family="sans-serif" font-size="13" lengthAdjust="spacing" textLength="7" x="1083.4214" y="236.8254">1</text></g><!--MD5=[bbd515b05a58d92b00daaa309c1159f7]
link RiskMapping to KriMeasures--><g id="link_RiskMapping_KriMeasures"><path codeLine="67" d="M655.13,285.76 C714.39,305.39 806.82,336.01 865.74,355.53 " fill="none" id="RiskMapping-KriMeasures" style="stroke:#181818;stroke-width:1.0;"/><text fill="#000000" font-family="sans-serif" font-size="13" lengthAdjust="spacing" textLength="7" x="662.8342" y="284.7844">1</text><text fill="#000000" font-family="sans-serif" font-size="13" lengthAdjust="spacing" textLength="20" x="838.1365" y="349.8692">1..*</text></g><!--MD5=[5b578fc7c9483b534f42e8928895a30e]
@startuml
class Organization {}
class FileInfo {}
class Gantt {}
class ImplementationInfo {}
class MajorRisks {}
class StrategicOrientations {}
class Objective {}
class Stakeholders {}
class TeamProjectMember {}


class Concurrent {}
class ConcurrentRisk {}
class ITRiskElement { }
class ITRiskElementSource {}
class MajorFact {}
class MethodologyToHandleRisk {}
class PotentialRisksOfTheCompany {}


class RiskEvent {}
class SousProcessus {}
class RiskMapping {}
class CommunicationPlan {}

class HistoriqueControlesAssuranceQualite {}
class MechanismsDescription {}
class MetricsOfRiskGovernance {}


class BusinessContinuityPlan {}
class KriMeasures {}
class ObjectifProgression {}
class ProblemDescription {}


FileInfo "1..*" - - "1" Organization
MajorRisks "1..*" - - "1" Organization
StrategicOrientations "1..*" - - "1" Organization
Stakeholders "1..*" - - "1" Organization
TeamProjectMember "1..*" - - "1" Organization
 Objective "1" - - "1" Organization
ImplementationInfo "1" - - "1" Organization
Gantt "1" - - "1" Organization

MethodologyToHandleRisk "1" - - "1" Organization
Organization "1" - - "1..*" PotentialRisksOfTheCompany
Organization "1" - - "1..*" MajorFact
ITRiskElementSource "1..*" - - "1" Organization
ITRiskElementSource "1" - - "1..*" ITRiskElement
Concurrent "1..*" - - "1" Organization
Concurrent "1" - - "1..*" ConcurrentRisk

Organization "1" - - "1..*" RiskEvent
RiskMapping "1" - - "1..*" SousProcessus
Organization "1" - - "1..*" RiskMapping

FileInfo "1" - - "1" Organization : "photo du Logilogramme"
Organization "1" - - "1..*" CommunicationPlan
Organization "1" - - "1" MechanismsDescription
RiskMapping "1" - - "1..*" HistoriqueControlesAssuranceQualite
RiskMapping "1" - - "1..*" MetricsOfRiskGovernance

Organization "1" - - "1..*" ObjectifProgression
Organization "1" - - "1" ProblemDescription
Organization "1" - - "1" BusinessContinuityPlan
RiskMapping "1" - - "1..*" KriMeasures
@enduml

PlantUML version 1.2022.7(Mon Aug 22 19:01:30 CEST 2022)
(GPL source distribution)
Java Runtime: OpenJDK Runtime Environment
JVM: OpenJDK 64-Bit Server VM
Default Encoding: Cp1252
Language: fr
Country: FR
--></g></svg>